<?xml version="1.0" standalone="no"?>
<!DOCTYPE svg PUBLIC "-//W3C//DTD SVG 20010904//EN"
 "http://www.w3.org/TR/2001/REC-SVG-20010904/DTD/svg10.dtd">
<svg version="1.0" xmlns="http://www.w3.org/2000/svg"
 width="22.000000pt" height="22.000000pt" viewBox="0 0 22.000000 22.000000"
 preserveAspectRatio="xMidYMid meet">

<g transform="translate(0.000000,22.000000) scale(0.100000,-0.100000)"
fill="#000000" stroke="none">
<path d="M100 158 c-9 -19 -21 -28 -37 -28 -28 0 -30 -16 -3 -30 16 -8 18 -15
10 -35 -10 -28 6 -35 28 -13 9 9 15 9 24 0 22 -22 38 -15 28 13 -8 20 -6 27
10 35 27 15 25 30 -4 30 -18 0 -27 8 -34 28 l-9 27 -13 -27z"/>
</g>
</svg>
